<svg height="30px" width="30px" version="1.1" id="Layer_1" xmlns="http://www.w3.org/2000/svg" xmlns:xlink="http://www.w3.org/1999/xlink" viewBox="0 0 512.001 512.001" xml:space="preserve" fill="#000000"><g id="SVGRepo_bgCarrier" stroke-width="0"></g><g id="SVGRepo_tracerCarrier" stroke-linecap="round" stroke-linejoin="round"></g><g id="SVGRepo_iconCarrier"> <path style="fill:#241f31;" d="M504,154.241L280,30c-14.637-8.087-32.403-8.087-47.04,0L8,154.241c-4.921,2.841-7.966,8.078-8,13.76 l0,0c0.437,5.248,3.429,9.945,8,12.56l224,126.16c14.606,8.21,32.435,8.21,47.04,0l224.96-126.16c4.571-2.615,7.563-7.312,8-12.56 l0,0C511.966,162.319,508.921,157.081,504,154.241z"></path> <path style="fill:#000000;" d="M462.48,162.88l5.36-28.56L440,118.961V200l-171.2,74.4c-8.139,3.539-17.381,3.539-25.52,0L0,168.64 c0.634,5.014,3.601,9.433,8,11.92l224,126.16c14.606,8.21,32.435,8.21,47.04,0l160.96-90.24l0,0l7.52-4.24l56-32 c4.399-2.486,7.366-6.906,8-11.92l-27.12,11.76c-8.169,3.37-17.522-0.52-20.893-8.689 C462.397,168.702,462.042,165.758,462.48,162.88z"></path> <path style="fill:#ffffff;" d="M512,168.001c-0.437,5.248-3.429,9.945-8,12.56L280,306.721c-14.606,8.21-32.435,8.21-47.04,0 L8,180.56c-4.571-2.615-7.563-7.312-8-12.56l0,0v321.36c0,12.503,10.136,22.64,22.64,22.64l0,0h466.721 c12.503,0,22.64-10.136,22.64-22.64l0,0L512,168.001L512,168.001z"></path> <g> <path style="fill:#f6f5f4;" d="M0,167.2v0.8c0,0,0-0.48,0-0.72l0,0V167.2z"></path> <path style="fill:#f6f5f4;" d="M512,168.001c-0.437,5.248-3.429,9.945-8,12.56L280,306.721c-14.606,8.21-32.435,8.21-47.04,0 L8,180.56c-1.167-0.657-2.242-1.465-3.2-2.4c-0.537-0.68-1.019-1.402-1.44-2.16l-0.8-1.04c-0.553-0.938-1.009-1.929-1.36-2.96 v-0.48c-0.498-0.944-0.899-1.936-1.2-2.96v-0.56l0,0v16c-0.011,5.528,2.832,10.67,7.52,13.6l223.04,139.36l2.56,1.6 c14.283,8.772,22.956,24.359,22.88,41.12v51.76c0,26.819-21.741,48.56-48.56,48.56H72c-17.674,0-32,14.327-32,32h449.36 c12.503,0,22.64-10.136,22.64-22.64l0,0L512,168.001L512,168.001z"></path> </g> <path style="fill:#77767b;" d="M360,0.001H96C82.745,0.001,72,10.746,72,24v192.48l160.48,90.32c14.606,8.21,32.435,8.21,47.04,0 l160.48-90.32V80L360,0.001z"></path> <path style="fill:#5e5c64;" d="M241.28,295.521L72,208v8.48l160.48,90.32c14.606,8.21,32.435,8.21,47.04,0l160.48-90.32V208 l-169.28,87.521C261.489,300.303,250.511,300.303,241.28,295.521z"></path> <path style="fill:#5e5c64;" d="M384,80.001h56L360,0.001v56C360,69.256,370.745,80.001,384,80.001z"></path> <polygon style="fill:#77767b;" points="440,80.001 384,80.001 440,136.001 "></polygon> <path style="fill:#5e5c64;" d="M264.001,252.001c-3.906,0.089-7.693-1.346-10.559-4.001l-68.64-67.68 c-22.091-21.645-22.453-57.1-0.809-79.192c0.267-0.272,0.536-0.542,0.809-0.809c10.843-10.637,25.45-16.56,40.64-16.48 c14.4,0,28,12.64,38.56,22.08c10.56-9.44,24-22.08,38.56-22.08c15.164-0.068,29.741,5.855,40.56,16.48 c22.091,21.645,22.453,57.1,0.809,79.192c-0.267,0.272-0.536,0.542-0.809,0.809L274.561,248 C271.694,250.655,267.906,252.089,264.001,252.001z"></path> <path style="fill:#ffffff;" d="M256.001,236.001c-3.906,0.089-7.693-1.346-10.559-4l-68.64-67.68 c-22.091-21.645-22.453-57.1-0.809-79.192c0.267-0.272,0.536-0.542,0.809-0.809c10.869-10.578,25.473-16.443,40.64-16.32 c14.4,0,28,12.64,38.56,22.08c10.561-9.44,24-22.08,38.56-22.08c15.164-0.068,29.741,5.855,40.56,16.48 c22.091,21.645,22.453,57.1,0.809,79.192c-0.267,0.272-0.536,0.542-0.809,0.809L266.561,232 C263.694,234.655,259.906,236.089,256.001,236.001z"></path> <path style="fill:#ffffff;" d="M228.48,215.04L245.44,232c5.901,5.741,15.3,5.741,21.2,0l68.56-67.361 c22.091-21.645,22.453-57.1,0.809-79.192c-0.267-0.272-0.536-0.542-0.809-0.809c-2.56-2.071-5.625-3.425-8.88-3.92 c-36.4-8-70.32,22.48-70.32,60.56v45.92c0.177,15.286-12.071,27.822-27.358,27.999c-0.027,0-0.055,0.001-0.082,0.001l0,0 L228.48,215.04z"></path> <path style="fill:#ffffff;" d="M184,136.001c-4.418,0-8-3.582-8-8c0-22.091,17.908-40,40-40c4.418,0,8,3.582,8,8s-3.582,8-8,8 c-13.255,0-24,10.745-24,24C192,132.419,188.419,136.001,184,136.001z"></path> </g></svg>