<?xml version="1.0" encoding="UTF-8" standalone="no"?>
<svg
   width="600"
   height="600"
   version="1.1"
   id="svg1"
   sodipodi:docname="icon.svg"
   inkscape:export-filename="icon.png"
   inkscape:export-xdpi="160"
   inkscape:export-ydpi="160"
   inkscape:version="1.3 (0e150ed6c4, 2023-07-21)"
   xmlns:inkscape="http://www.inkscape.org/namespaces/inkscape"
   xmlns:sodipodi="http://sodipodi.sourceforge.net/DTD/sodipodi-0.dtd"
   xmlns="http://www.w3.org/2000/svg"
   xmlns:svg="http://www.w3.org/2000/svg">
  <defs
     id="defs1" />
  <sodipodi:namedview
     id="namedview1"
     pagecolor="#505050"
     bordercolor="#eeeeee"
     borderopacity="1"
     inkscape:showpageshadow="0"
     inkscape:pageopacity="0"
     inkscape:pagecheckerboard="0"
     inkscape:deskcolor="#505050"
     inkscape:zoom="0.51972348"
     inkscape:cx="317.47651"
     inkscape:cy="240.51251"
     inkscape:window-width="948"
     inkscape:window-height="1064"
     inkscape:window-x="8"
     inkscape:window-y="8"
     inkscape:window-maximized="0"
     inkscape:current-layer="svg1" />
  <path
     d="M135 88C132.572 91.5507 126.612 96.3549 126.967 100.985C127.308 105.435 132.823 108.644 136 111C144.123 117.023 152.028 123.355 160 129.576C192.901 155.25 226.213 180.396 259 206.211C264.56 210.589 273.54 215.209 277.423 221.171C280.159 225.371 276.952 228.901 282 232C279.479 235.099 275.375 242.32 271.335 243.323C268.192 244.104 263.482 239.73 261 238.192C252.315 232.809 243.656 227.379 235 221.95C231.334 219.65 223.671 212.621 219.09 214.252C215.934 215.376 213.753 219.507 211.789 222C206.548 228.654 201.287 235.289 196.119 242C176.989 266.84 157.477 291.433 137.997 316C132.212 323.296 126.526 330.666 120.79 338C118.925 340.385 115.423 343.646 115.907 346.996C116.669 352.281 126.356 358.397 130 361.996C144.114 375.937 159.31 388.899 175 401C180.324 396.928 184.055 391.171 188.261 386C195.535 377.057 202.81 368.102 209.884 359C229.505 333.754 249.547 308.643 269.92 284C277.548 274.772 284.98 265.36 292.425 255.985C296.035 251.441 298.71 246.104 305 246L306 243L320 253C311.285 264.339 304.256 277.094 296.333 289C293.94 292.598 287.711 299.361 288.113 303.91C288.449 307.705 294.271 310.47 297 312.421C305.718 318.654 314.218 325.208 323 331.343C358.037 355.819 393.147 380.908 427 407C442.763 395.803 452.672 376.96 467.09 364.162C472.086 359.727 482.513 357.783 482.897 349.001C483.097 344.438 477.117 340.973 474 338.627C464.594 331.546 455.327 324.301 446 317.119C418.262 295.759 390.768 274.083 363 252.765C354.632 246.34 346.343 239.807 338 233.35C333.188 229.625 328.724 225.214 323 223L326 219C325.249 214.038 328.476 211.046 331 207C342.366 215.257 355.07 221.993 367 229.424C370.417 231.552 376.501 237.134 380.829 236.172C384.61 235.332 387.337 229.866 389.424 227C395.071 219.25 401.087 211.769 406.707 204C423.052 181.403 440.14 159.311 456.873 137C464.331 127.057 476.071 115.847 480 104C466.718 93.88 454.545 81.7584 442 70.7145C435.518 65.0078 429.066 58.41 421 55C396.372 89.2592 368.894 121.845 342.789 155C334.65 165.338 326.401 175.594 318.35 186C314.099 191.494 309.165 196.801 306 203C301.352 199.341 292.581 201.009 290.022 194.91C288.417 191.087 293.049 185.964 295.003 183C300.694 174.368 306.407 165.73 311.947 157C313.658 154.303 317.843 149.61 316.694 146.174C315.58 142.838 310.707 140.522 308 138.659C300.591 133.559 293.397 128.147 286 123.025C260.813 105.583 235.917 87.6835 211 69.8596C204.024 64.8693 197.052 59.8561 190 54.9753C187.459 53.2168 184.26 49.9765 181 49.8311C176.436 49.6274 171.854 56.0562 169.039 59C162.343 66.002 155.864 73.14 149 80C144.625 84.3723 141.512 88.3321 135 88M270 319C264.879 326.15 257.955 333.846 254.613 342C250.964 350.9 249.943 361.603 247.997 371C244.268 389.012 240.552 407.069 236.501 425C233.102 440.04 226.957 454.453 221.922 469C217.632 481.394 212.807 493.608 208.505 506C207.241 509.638 203.56 515.981 205.212 519.816C206.847 523.61 212.727 526.151 216 528.333C220.442 531.294 225.003 535.209 230 537.161C238.229 540.375 249.249 540.218 258 541.424C272.717 543.451 288.151 547.2 303 547.545C318.282 547.899 334.862 544.492 350 542.425C358.926 541.207 369.563 542.214 378 538.775C387.602 534.862 396.425 526.785 405 521C397.459 501.558 389.3 482.356 381.551 463C377.443 452.738 372.203 442.603 369.042 432C365.805 421.141 364.049 409.167 362.084 398C361.111 392.469 360.997 385.06 358.012 380.174C353.286 372.44 340.374 366.729 333 361.659C318.956 352.002 305.092 342.085 291 332.495C284.264 327.911 277.649 321.9 270 319z"
     style="fill:#ffffff; stroke:none;"
     id="path1" />
</svg>
